<svg width="405" height="434" viewBox="0 0 405 434" fill="none" xmlns="http://www.w3.org/2000/svg">
<g opacity="0.3">
<path opacity="0.3" d="M211.516 364.25H237.378L336.46 309.913L249.469 261.201L187.221 293.676L211.516 364.25Z" fill="#CFC4B8"/>
<path d="M116.688 289.112L121.39 286.565L127.66 289.962L122.957 292.509L116.688 289.112Z" fill="#E4E3EE"/>
<path d="M128.555 287.202L133.146 284.655L128.444 291.978L123.853 294.525L128.555 287.202Z" fill="#B7B6E3"/>
<path d="M139.527 291.66L144.117 289.112V290.598L139.527 293.145V291.66Z" fill="#919DD6"/>
<path d="M127.771 285.186L132.362 282.639L144.117 289.112L139.527 291.66L127.771 285.186Z" fill="#E4E3EE"/>
<path d="M139.527 291.66V293.145L128.555 287.202L123.853 294.525L116.688 290.598V289.112L122.957 292.509L127.772 285.186L139.527 291.66Z" fill="#919DD6"/>
<path d="M133.929 279.879L138.52 277.332L144.789 280.728L140.199 283.275L133.929 279.879Z" fill="#E4E3EE"/>
<path d="M145.685 277.969L150.387 275.422L145.685 282.745L140.983 285.292L145.685 277.969Z" fill="#B7B6E3"/>
<path d="M156.656 282.426L161.247 279.879V281.365L156.656 283.912V282.426Z" fill="#919DD6"/>
<path d="M144.901 275.953L149.492 273.406L161.247 279.879L156.657 282.427L144.901 275.953Z" fill="#E4E3EE"/>
<path d="M156.657 282.427V283.912L145.685 277.969L140.983 285.292L133.929 281.365V279.879L140.199 283.276L144.901 275.953L156.657 282.427Z" fill="#919DD6"/>
<path d="M150.387 270.54L154.977 267.993L161.247 271.389L156.657 273.936L150.387 270.54Z" fill="#E4E3EE"/>
<path d="M162.143 268.63L166.845 266.083L162.031 273.406L157.44 275.953L162.143 268.63Z" fill="#B7B6E3"/>
<path d="M173.115 273.087L177.705 270.54V272.026L173.115 274.573V273.087Z" fill="#919DD6"/>
<path d="M161.359 266.614L165.949 264.067L177.704 270.54L173.114 273.087L161.359 266.614Z" fill="#E4E3EE"/>
<path d="M173.114 273.087V274.573L162.142 268.63L157.44 275.953L150.275 272.026L150.387 270.54L156.656 273.936L161.359 266.614L173.114 273.087Z" fill="#919DD6"/>
<path d="M99.7822 299.194L104.372 296.647L110.642 300.043L106.052 302.59L99.7822 299.194Z" fill="#E4E3EE"/>
<path d="M111.65 297.284L116.24 294.737L111.538 302.06L106.835 304.607L111.65 297.284Z" fill="#B7B6E3"/>
<path d="M122.51 301.742L127.212 299.194V300.68L122.51 303.227V301.742Z" fill="#919DD6"/>
<path d="M110.754 295.268L115.344 292.721L127.212 299.194L122.509 301.742L110.754 295.268Z" fill="#E4E3EE"/>
<path d="M122.51 301.742V303.227L111.65 297.284L106.836 304.607L99.7822 300.68V299.194L106.052 302.591L110.754 295.268L122.51 301.742Z" fill="#919DD6"/>
<path d="M168.636 260.777L173.226 258.23L179.496 261.626L174.906 264.173L168.636 260.777Z" fill="#E4E3EE"/>
<path d="M180.391 258.866L185.094 256.319L180.391 263.642L175.689 266.189L180.391 258.866Z" fill="#B7B6E3"/>
<path d="M191.364 263.324L195.954 260.777V262.262L191.364 264.81V263.324Z" fill="#919DD6"/>
<path d="M179.608 256.85L184.198 254.303L195.954 260.777L191.363 263.324L179.608 256.85Z" fill="#E4E3EE"/>
<path d="M191.364 263.324V264.81L180.392 258.866L175.69 266.189L168.636 262.263V260.777L174.906 264.173L179.608 256.85L191.364 263.324Z" fill="#919DD6"/>
<path d="M186.213 251.331L190.804 248.784L197.073 252.18L192.483 254.728L186.213 251.331Z" fill="#E4E3EE"/>
<path d="M197.969 249.421L202.671 246.874L197.857 254.197L193.267 256.744L197.969 249.421Z" fill="#B7B6E3"/>
<path d="M208.941 253.878L213.531 251.331V252.817L208.941 255.364V253.878Z" fill="#919DD6"/>
<path d="M197.185 247.405L201.776 244.858L213.531 251.331L208.941 253.878L197.185 247.405Z" fill="#E4E3EE"/>
<path d="M208.941 253.878V255.364L197.969 249.421L193.267 256.744L186.213 252.817V251.331L192.483 254.728L197.185 247.405L208.941 253.878Z" fill="#919DD6"/>
<path d="M304.889 289.325L300.186 286.778L293.917 290.174L298.619 292.721L304.889 289.325Z" fill="#E4E3EE"/>
<path d="M293.021 287.415L288.319 284.867L293.133 292.19L297.724 294.737L293.021 287.415Z" fill="#B7B6E3"/>
<path d="M282.049 291.872L277.459 289.325V290.811L282.049 293.358V291.872Z" fill="#919DD6"/>
<path d="M293.805 285.398L289.215 282.851L277.459 289.325L282.049 291.872L293.805 285.398Z" fill="#E4E3EE"/>
<path d="M282.049 291.872V293.358L293.021 287.415L297.723 294.737L304.889 290.811V289.325L298.619 292.721L293.805 285.398L282.049 291.872Z" fill="#919DD6"/>
<path d="M287.647 280.092L283.057 277.545L276.787 280.941L281.377 283.488L287.647 280.092Z" fill="#E4E3EE"/>
<path d="M275.779 278.182L271.189 275.635L275.891 282.957L280.594 285.504L275.779 278.182Z" fill="#B7B6E3"/>
<path d="M264.92 282.639L260.33 280.092V281.578L264.92 284.125V282.639Z" fill="#919DD6"/>
<path d="M276.675 276.165L272.085 273.618L260.33 280.092L264.92 282.639L276.675 276.165Z" fill="#E4E3EE"/>
<path d="M264.92 282.639V284.125L275.78 278.182L280.594 285.504L287.647 281.578V280.092L281.377 283.488L276.675 276.165L264.92 282.639Z" fill="#919DD6"/>
<path d="M271.189 270.753L266.599 268.206L260.33 271.708L264.92 274.255L271.189 270.753Z" fill="#E4E3EE"/>
<path d="M259.434 268.842L254.732 266.295L259.546 273.618L264.136 276.165L259.434 268.842Z" fill="#B7B6E3"/>
<path d="M248.462 273.3L243.872 270.753V272.345L248.462 274.892V273.3Z" fill="#919DD6"/>
<path d="M260.217 266.932L255.627 264.385L243.872 270.753L248.462 273.3L260.217 266.932Z" fill="#E4E3EE"/>
<path d="M248.462 273.3V274.892L259.434 268.842L264.136 276.165L271.189 272.345V270.753L264.92 274.255L260.217 266.932L248.462 273.3Z" fill="#919DD6"/>
<path d="M321.794 299.407L317.204 296.86L310.934 300.256L315.525 302.803L321.794 299.407Z" fill="#E4E3EE"/>
<path d="M309.927 297.496L305.336 294.949L310.039 302.272L314.741 304.819L309.927 297.496Z" fill="#B7B6E3"/>
<path d="M299.067 301.954L294.365 299.407V300.893L299.067 303.44V301.954Z" fill="#919DD6"/>
<path d="M310.822 295.48L306.232 292.933L294.365 299.407L299.067 301.954L310.822 295.48Z" fill="#E4E3EE"/>
<path d="M299.067 301.954V303.44L309.927 297.496L314.741 304.819L321.795 300.893V299.407L315.525 302.803L310.823 295.48L299.067 301.954Z" fill="#919DD6"/>
<path d="M252.94 260.989L248.35 258.442L242.081 261.838L246.671 264.385L252.94 260.989Z" fill="#E4E3EE"/>
<path d="M241.073 259.079L236.483 256.532L241.185 263.854L245.887 266.401L241.073 259.079Z" fill="#B7B6E3"/>
<path d="M230.213 263.536L225.623 260.989V262.475L230.213 265.022V263.536Z" fill="#919DD6"/>
<path d="M241.968 257.062L237.378 254.515L225.623 260.989L230.213 263.536L241.968 257.062Z" fill="#E4E3EE"/>
<path d="M230.213 263.536V265.022L241.073 259.079L245.887 266.401L252.941 262.475V260.989L246.671 264.385L241.969 257.062L230.213 263.536Z" fill="#919DD6"/>
<path d="M235.363 251.544L230.773 248.997L224.503 252.393L229.093 254.94L235.363 251.544Z" fill="#E4E3EE"/>
<path d="M223.608 249.633L218.906 247.086L223.72 254.409L228.31 256.956L223.608 249.633Z" fill="#B7B6E3"/>
<path d="M212.635 254.091L208.045 251.544V253.03L212.635 255.577V254.091Z" fill="#919DD6"/>
<path d="M224.391 247.617L219.801 245.07L208.045 251.544L212.635 254.091L224.391 247.617Z" fill="#E4E3EE"/>
<path d="M212.636 254.091V255.577L223.608 249.634L228.31 256.956L235.363 253.03V251.544L229.093 254.94L224.391 247.617L212.636 254.091Z" fill="#919DD6"/>
<path d="M310.598 299.194V309.701L211.516 364.25V353.743L310.598 299.194Z" fill="#12B0F3"/>
<path d="M211.516 353.743V364.25L111.874 309.701V299.194L211.516 353.743Z" fill="#1393F2"/>
<path d="M310.598 299.194L211.516 353.743L111.874 299.194L210.844 244.646L310.598 299.194Z" fill="#05D4F5"/>
<path d="M286.864 296.541V301.848L211.404 343.343L211.516 338.037L286.864 296.541Z" fill="#D4D5F0"/>
<path d="M211.516 338.037L211.404 343.343L135.609 301.848V296.541L211.516 338.037Z" fill="#C4C3EC"/>
<path d="M286.863 296.541L211.516 338.037L135.609 296.541L210.956 255.046L286.863 296.541Z" fill="white"/>
<path d="M103.701 326.257L99.1108 323.71L103.813 311.293L108.403 313.84L103.701 326.257Z" fill="#C4C3EC"/>
<path d="M108.403 313.84L103.813 311.293L115.569 304.819L120.159 307.366L108.403 313.84Z" fill="#E4E3EE"/>
<path d="M97.4313 329.759L92.8411 327.212L99.1107 323.71L103.701 326.257L97.4313 329.759Z" fill="#E4E3EE"/>
<path d="M97.4313 331.245L92.8411 328.698V327.212L97.4313 329.759V331.245Z" fill="#B7B6E3"/>
<path d="M120.159 307.366V308.852L109.299 314.901L104.597 327.318L97.4316 331.245V329.759L103.701 326.257L108.403 313.84L120.159 307.366Z" fill="#919DD6"/>
<path d="M121.167 335.702L116.464 333.155L121.167 320.738L125.757 323.285L121.167 335.702Z" fill="#C4C3EC"/>
<path d="M125.757 323.285L121.167 320.738L132.922 314.265L137.512 316.812L125.757 323.285Z" fill="#E4E3EE"/>
<path d="M114.897 339.098L110.195 336.551L116.464 333.155L121.167 335.702L114.897 339.098Z" fill="#E4E3EE"/>
<path d="M114.897 340.69L110.195 338.143V336.551L114.897 339.098V340.69Z" fill="#B7B6E3"/>
<path d="M137.512 316.812V318.297L126.653 324.347L121.95 336.763L114.897 340.69V339.098L121.167 335.702L125.757 323.285L137.512 316.812Z" fill="#919DD6"/>
<path d="M138.296 345.253L133.706 342.706L138.408 330.183L142.998 332.73L138.296 345.253Z" fill="#C4C3EC"/>
<path d="M142.998 332.731L138.408 330.183L150.163 323.816L154.754 326.363L142.998 332.731Z" fill="#E4E3EE"/>
<path d="M132.027 348.649L127.436 346.102L133.706 342.706L138.296 345.253L132.027 348.649Z" fill="#E4E3EE"/>
<path d="M132.138 350.135L127.436 347.588V346.102L132.027 348.649L132.138 350.135Z" fill="#B7B6E3"/>
<path d="M154.754 326.363V327.849L143.894 333.792L139.192 346.315L132.138 350.135L132.026 348.649L138.296 345.253L142.998 332.73L154.754 326.363Z" fill="#919DD6"/>
<path d="M155.537 354.699L150.947 352.152L155.649 339.629L160.24 342.176L155.537 354.699Z" fill="#C4C3EC"/>
<path d="M160.24 342.176L155.649 339.629L167.405 333.261L171.995 335.808L160.24 342.176Z" fill="#E4E3EE"/>
<path d="M149.268 358.095L144.678 355.548L150.947 352.152L155.538 354.699L149.268 358.095Z" fill="#E4E3EE"/>
<path d="M149.268 359.687L144.678 357.14V355.548L149.268 358.095V359.687Z" fill="#B7B6E3"/>
<path d="M171.995 335.808V337.294L161.136 343.237L156.433 355.76L149.268 359.687V358.095L155.538 354.699L160.24 342.176L171.995 335.808Z" fill="#919DD6"/>
<path d="M173.003 364.038L168.412 361.491L173.115 349.074L177.705 351.621L173.003 364.038Z" fill="#C4C3EC"/>
<path d="M177.705 351.621L173.115 349.074L184.87 342.6L189.461 345.147L177.705 351.621Z" fill="#E4E3EE"/>
<path d="M166.733 367.54L162.143 364.993L168.412 361.491L173.003 364.038L166.733 367.54Z" fill="#E4E3EE"/>
<path d="M166.733 369.026L162.143 366.479V364.993L166.733 367.54V369.026Z" fill="#B7B6E3"/>
<path d="M189.461 345.147V346.633L178.601 352.682L173.898 365.099L166.733 369.026V367.54L173.003 364.038L177.705 351.621L189.461 345.147Z" fill="#919DD6"/>
<path d="M190.132 373.589L185.542 371.042L190.132 358.519L194.834 361.066L190.132 373.589Z" fill="#C4C3EC"/>
<path d="M194.835 361.066L190.132 358.519L202 352.046L206.59 354.593L194.835 361.066Z" fill="#E4E3EE"/>
<path d="M183.863 376.985L179.272 374.438L185.542 371.042L190.132 373.589L183.863 376.985Z" fill="#E4E3EE"/>
<path d="M183.863 378.471L179.272 375.924V374.438L183.863 376.985V378.471Z" fill="#B7B6E3"/>
<path d="M206.59 354.593V356.184L195.618 362.128L191.028 374.65L183.863 378.471V376.985L190.132 373.589L194.835 361.066L206.59 354.593Z" fill="#919DD6"/>
<path d="M318.995 326.469L323.697 323.922L318.995 311.399L314.405 313.946L318.995 326.469Z" fill="#C4C3EC"/>
<path d="M314.405 313.946L318.995 311.399L307.239 305.031L302.649 307.579L314.405 313.946Z" fill="#E4E3EE"/>
<path d="M325.264 329.865L329.966 327.318L323.697 323.922L318.995 326.469L325.264 329.865Z" fill="#E4E3EE"/>
<path d="M325.264 331.351L329.967 328.91V327.318L325.264 329.865V331.351Z" fill="#B7B6E3"/>
<path d="M302.649 307.579V309.064L313.509 315.007L318.211 327.53L325.264 331.351V329.865L318.994 326.469L314.404 313.946L302.649 307.579Z" fill="#919DD6"/>
<path d="M301.641 335.914L306.344 333.367L301.641 320.844L297.051 323.391L301.641 335.914Z" fill="#C4C3EC"/>
<path d="M297.051 323.391L301.642 320.844L289.886 314.371L285.184 316.918L297.051 323.391Z" fill="#E4E3EE"/>
<path d="M307.911 339.31L312.613 336.763L306.344 333.367L301.642 335.914L307.911 339.31Z" fill="#E4E3EE"/>
<path d="M307.911 340.796L312.613 338.249V336.763L307.911 339.31V340.796Z" fill="#B7B6E3"/>
<path d="M285.184 316.918V318.51L296.156 324.453L300.858 336.976L307.911 340.796V339.31L301.642 335.914L297.051 323.391L285.184 316.918Z" fill="#919DD6"/>
<path d="M284.4 345.36L289.102 342.812L284.4 330.396L279.81 332.943L284.4 345.36Z" fill="#C4C3EC"/>
<path d="M279.81 332.943L284.4 330.396L272.644 323.922L267.942 326.469L279.81 332.943Z" fill="#E4E3EE"/>
<path d="M290.67 348.862L295.372 346.315L289.102 342.813L284.4 345.36L290.67 348.862Z" fill="#E4E3EE"/>
<path d="M290.67 350.347L295.372 347.8V346.315L290.67 348.862V350.347Z" fill="#B7B6E3"/>
<path d="M267.942 326.469V328.061L278.914 334.004L283.616 346.421L290.67 350.347V348.862L284.4 345.36L279.81 332.943L267.942 326.469Z" fill="#919DD6"/>
<path d="M267.159 354.805L271.861 352.258L267.159 339.841L262.568 342.388L267.159 354.805Z" fill="#C4C3EC"/>
<path d="M262.569 342.388L267.159 339.841L255.403 333.367L250.813 335.914L262.569 342.388Z" fill="#E4E3EE"/>
<path d="M273.428 358.307L278.13 355.76L271.861 352.258L267.158 354.805L273.428 358.307Z" fill="#E4E3EE"/>
<path d="M273.428 359.793L278.131 357.246V355.76L273.428 358.307V359.793Z" fill="#B7B6E3"/>
<path d="M250.813 335.914V337.506L261.673 343.449L266.375 355.866L273.428 359.793V358.307L267.159 354.805L262.569 342.388L250.813 335.914Z" fill="#919DD6"/>
<path d="M249.805 364.25L254.395 361.703L249.693 349.286L245.103 351.833L249.805 364.25Z" fill="#C4C3EC"/>
<path d="M245.103 351.833L249.693 349.286L237.937 342.813L233.347 345.36L245.103 351.833Z" fill="#E4E3EE"/>
<path d="M256.075 367.646L260.665 365.099L254.395 361.703L249.805 364.25L256.075 367.646Z" fill="#E4E3EE"/>
<path d="M256.075 369.238L260.665 366.691V365.099L256.075 367.646V369.238Z" fill="#B7B6E3"/>
<path d="M233.347 345.36V346.845L244.207 352.788L248.909 365.311L256.075 369.238V367.646L249.805 364.25L245.103 351.833L233.347 345.36Z" fill="#919DD6"/>
<path d="M232.676 373.695L237.266 371.148L232.564 358.731L227.974 361.278L232.676 373.695Z" fill="#C4C3EC"/>
<path d="M227.974 361.278L232.564 358.731L220.808 352.258L216.218 354.805L227.974 361.278Z" fill="#E4E3EE"/>
<path d="M238.945 377.197L243.535 374.65L237.266 371.148L232.676 373.695L238.945 377.197Z" fill="#E4E3EE"/>
<path d="M238.945 378.683L243.536 376.136V374.65L238.945 377.197V378.683Z" fill="#B7B6E3"/>
<path d="M216.218 354.805V356.29L227.078 362.34L231.78 374.756L238.945 378.683V377.197L232.676 373.695L227.974 361.278L216.218 354.805Z" fill="#919DD6"/>
<path d="M161.806 296.541L165.501 298.558L211.068 323.497V269.373L161.806 296.541Z" fill="#D4D5F0"/>
<path d="M211.067 269.373V323.497L211.403 323.71L256.97 298.558L260.665 296.541L211.067 269.373Z" fill="#C4C3EC"/>
<path d="M256.97 298.558L211.404 323.71L165.501 298.558L211.068 273.512L256.97 298.558Z" fill="#05D4F5"/>
<path d="M256.971 298.558L211.404 323.71L165.501 298.558L211.068 273.512L256.971 298.558Z" fill="#05D4F5"/>
<path d="M235.81 294.843V297.496L230.437 300.468V297.815L235.81 294.843Z" fill="#D4D5F0"/>
<path d="M230.437 297.815V300.468L206.254 287.202V284.549L230.437 297.815Z" fill="#C4C3EC"/>
<path d="M235.811 294.843L230.437 297.815L206.254 284.549L211.628 281.577L235.811 294.843Z" fill="#EEEFF2"/>
<path d="M208.941 299.194V301.848C207.486 301.423 206.142 301.105 204.911 300.786C203.567 300.468 202.448 300.15 201.328 299.937C200.208 299.725 199.201 299.407 198.417 299.194C197.633 298.982 196.962 298.876 196.402 298.77V296.117C196.85 296.223 197.521 296.329 198.417 296.541C199.201 296.754 200.208 296.966 201.328 297.284C202.448 297.496 203.679 297.815 204.911 298.133C206.142 298.452 207.486 298.77 208.941 299.194Z" fill="#1393F2"/>
<mask id="mask0_35_18" style="mask-type:luminance" maskUnits="userSpaceOnUse" x="196" y="296" width="13" height="6">
<path d="M208.941 299.194V301.848C207.486 301.423 206.142 301.105 204.911 300.786C203.567 300.468 202.448 300.15 201.328 299.937C200.208 299.725 199.201 299.407 198.417 299.194C197.633 298.982 196.962 298.876 196.402 298.77V296.117C196.85 296.223 197.521 296.329 198.417 296.541C199.201 296.754 200.208 296.966 201.328 297.284C202.448 297.496 203.679 297.815 204.911 298.133C206.142 298.452 207.486 298.77 208.941 299.194Z" fill="white"/>
</mask>
<g mask="url(#mask0_35_18)">
<path d="M208.941 299.194V301.848C207.486 301.423 206.142 301.105 204.911 300.786C203.567 300.468 202.448 300.15 201.328 299.937C200.208 299.725 199.201 299.407 198.417 299.194C197.633 298.982 196.962 298.876 196.402 298.77V296.117C196.85 296.223 197.521 296.329 198.417 296.541C199.201 296.754 200.208 296.966 201.328 297.284C202.448 297.496 203.679 297.815 204.911 298.133C206.142 298.452 207.486 298.77 208.941 299.194Z" fill="#C4C3EC"/>
</g>
<path d="M218.121 301.742V304.395C216.89 304.076 215.77 303.758 214.539 303.44V300.786C215.77 301.211 216.89 301.423 218.121 301.742Z" fill="#1393F2"/>
<mask id="mask1_35_18" style="mask-type:luminance" maskUnits="userSpaceOnUse" x="214" y="300" width="5" height="5">
<path d="M218.121 301.742V304.395C216.89 304.076 215.77 303.758 214.539 303.44V300.786C215.77 301.211 216.89 301.423 218.121 301.742Z" fill="white"/>
</mask>
<g mask="url(#mask1_35_18)">
<path d="M218.121 301.742V304.395C216.89 304.076 215.77 303.758 214.539 303.44V300.786C215.77 301.211 216.89 301.423 218.121 301.742Z" fill="#C4C3EC"/>
</g>
<path d="M221.592 302.697V305.35C220.473 305.031 219.353 304.713 218.122 304.395V301.742C219.353 302.06 220.473 302.378 221.592 302.697Z" fill="#1393F2"/>
<mask id="mask2_35_18" style="mask-type:luminance" maskUnits="userSpaceOnUse" x="218" y="301" width="4" height="5">
<path d="M221.592 302.697V305.35C220.473 305.031 219.353 304.713 218.122 304.395V301.742C219.353 302.06 220.473 302.378 221.592 302.697Z" fill="white"/>
</mask>
<g mask="url(#mask2_35_18)">
<path d="M221.592 302.697V305.35C220.473 305.031 219.353 304.713 218.122 304.395V301.742C219.353 302.06 220.473 302.378 221.592 302.697Z" fill="#C4C3EC"/>
</g>
<path d="M227.414 299.513L227.302 302.166L221.592 305.35V302.697L227.414 299.513Z" fill="#D4D5F0"/>
<path d="M214.539 300.893V303.44L205.134 308.64V305.987L214.539 300.893Z" fill="#D4D5F0"/>
<path d="M203.007 312.991V315.644C201.328 313.734 199.76 311.93 198.305 310.232C196.962 308.534 195.618 307.048 194.387 305.456C193.155 303.97 192.147 302.484 191.14 301.105C190.132 299.725 189.236 298.345 188.341 296.966V294.313C189.236 295.692 190.132 297.072 191.14 298.452C192.147 299.831 193.267 301.317 194.387 302.803C195.506 304.289 196.85 305.88 198.305 307.578C199.76 309.276 201.328 310.975 203.007 312.991Z" fill="#1393F2"/>
<mask id="mask3_35_18" style="mask-type:luminance" maskUnits="userSpaceOnUse" x="188" y="294" width="16" height="22">
<path d="M203.007 312.991V315.644C201.328 313.734 199.76 311.93 198.305 310.232C196.962 308.534 195.618 307.048 194.387 305.456C193.155 303.97 192.147 302.484 191.14 301.105C190.132 299.725 189.236 298.345 188.341 296.966V294.313C189.236 295.692 190.132 297.072 191.14 298.452C192.147 299.831 193.267 301.317 194.387 302.803C195.506 304.289 196.85 305.88 198.305 307.578C199.76 309.276 201.328 310.975 203.007 312.991Z" fill="white"/>
</mask>
<g mask="url(#mask3_35_18)">
<path d="M203.007 312.991V315.644C201.328 313.734 199.76 311.93 198.305 310.232C196.962 308.534 195.618 307.048 194.387 305.456C193.155 303.97 192.147 302.484 191.14 301.105C190.132 299.725 189.236 298.345 188.341 296.966V294.313C189.236 295.692 190.132 297.072 191.14 298.452C192.147 299.831 193.267 301.317 194.387 302.803C195.506 304.289 196.85 305.88 198.305 307.578C199.76 309.276 201.328 310.975 203.007 312.991Z" fill="#C4C3EC"/>
</g>
<path d="M208.605 309.807V312.46L203.007 315.538V312.991L208.605 309.807Z" fill="#D4D5F0"/>
<path d="M218.122 301.742C216.89 301.423 215.77 301.105 214.539 300.786L205.134 305.987C205.694 306.623 206.254 307.26 206.926 307.897C207.486 308.534 208.045 309.17 208.605 309.807L203.007 312.885C201.328 310.975 199.76 309.17 198.305 307.472C196.962 305.774 195.618 304.289 194.387 302.697C193.155 301.211 192.147 299.725 191.14 298.346C190.132 296.966 189.236 295.586 188.341 294.207L193.491 291.341C195.954 291.872 198.417 292.296 200.992 292.827C203.567 293.358 206.142 293.994 208.829 294.631C211.516 295.268 214.427 296.011 217.45 296.754C220.473 297.496 223.719 298.346 227.302 299.301L221.48 302.484C220.473 302.378 219.353 302.06 218.122 301.742ZM202.112 303.015L208.941 299.195C207.486 298.876 206.142 298.452 204.911 298.133C203.567 297.815 202.447 297.496 201.328 297.284C200.208 297.072 199.201 296.754 198.417 296.541C197.633 296.329 196.962 296.223 196.402 296.117C196.626 296.329 196.962 296.754 197.297 297.178C197.633 297.603 198.081 298.133 198.641 298.77C199.089 299.407 199.649 300.044 200.208 300.786C200.768 301.423 201.44 302.166 202.112 303.015Z" fill="#EEEFF2"/>
<path d="M211.74 405.745L47.9458 316.069L210.732 226.392L374.638 316.069L211.74 405.745ZM52.2002 316.069L211.74 403.411L370.16 316.175L210.62 228.833L52.2002 316.069Z" fill="#05D4F5"/>
<path d="M73.36 328.698L61.2686 335.277C61.0447 335.384 60.8207 335.384 60.7088 335.277L48.2815 328.485L7.9768 350.56L4.17024 352.576C4.05828 352.576 3.94633 352.682 3.83437 352.682C3.61045 352.682 3.4985 352.576 3.38654 352.364C3.27458 352.152 3.27458 351.727 3.61045 351.621L6.74526 349.923L47.9456 327.424C48.1695 327.318 48.3935 327.318 48.5054 327.424L60.9327 334.216L72.2404 328.061L73.36 328.698Z" fill="#05D4F5"/>
<path d="M170.987 381.124L169.084 382.185L158.112 388.235C157.888 388.341 157.664 388.341 157.552 388.235L145.125 381.442L129.451 390.039L128.331 390.675L104.484 403.729L101.014 405.639C100.902 405.639 100.79 405.745 100.678 405.745C100.454 405.745 100.342 405.639 100.23 405.427C100.118 405.215 100.118 404.79 100.454 404.684L103.477 402.986L127.1 390.039L128.219 389.402L144.789 380.381C145.013 380.275 145.237 380.275 145.349 380.381L157.776 387.173L167.964 381.655L169.868 380.593L170.987 381.124Z" fill="#05D4F5"/>
<path d="M133.257 360.536L131.354 361.597L120.606 367.434C120.382 367.54 120.158 367.54 120.046 367.434L107.619 360.642L91.721 369.344L90.6015 369.981L67.6502 382.504L63.6197 384.732C63.5077 384.732 63.3958 384.838 63.2838 384.838C63.0599 384.838 62.948 384.732 62.836 384.52C62.724 384.308 62.724 383.883 63.0599 383.777L66.7545 381.761L89.4819 369.344L90.6015 368.707L107.395 359.474C107.619 359.368 107.843 359.368 107.955 359.474L120.382 366.266L130.234 360.854L132.138 359.793L133.257 360.536Z" fill="#05D4F5"/>
<path d="M103.253 344.086L101.349 345.147L60.8208 367.328L57.7979 369.026C57.686 369.026 57.574 369.132 57.4621 369.132C57.2381 369.132 57.1262 369.026 57.0142 368.813C56.9023 368.601 56.9023 368.177 57.2381 368.071L59.8132 366.691L100.23 344.51L102.133 343.449L103.253 344.086Z" fill="#05D4F5"/>
<path d="M184.87 388.765L182.967 389.826L142.998 411.689L139.863 413.387C139.751 413.387 139.639 413.493 139.527 413.493C139.303 413.493 139.191 413.387 139.079 413.174C138.967 412.962 138.967 412.538 139.303 412.431L141.766 411.052L181.735 389.19L183.638 388.128L184.87 388.765Z" fill="#05D4F5"/>
<path d="M146.244 367.54L144.341 368.601L117.359 383.353L116.24 383.989L104.036 390.675L100.79 392.48C100.678 392.48 100.566 392.586 100.454 392.586C100.23 392.586 100.118 392.48 100.006 392.267C99.894 392.055 99.894 391.631 100.23 391.524L102.917 390.039L115.12 383.353L116.24 382.716L143.222 367.964L145.125 366.903L146.244 367.54Z" fill="#05D4F5"/>
<path d="M145.573 398.847L130.458 407.231L126.204 409.46L125.644 408.505L129.451 406.488L143.334 398.847L128.219 390.675L127.1 390.039L116.128 383.99L115.008 383.353L90.4896 369.981L89.37 369.344L79.4058 363.932L107.395 348.437L109.298 347.376L110.418 348.013L108.515 349.074L81.7569 363.932L90.4896 368.707L91.7211 369.344L116.128 382.822L117.247 383.353L128.219 389.402L129.339 390.039L145.573 398.847Z" fill="#05D4F5"/>
<path d="M7.41719 350.347C9.09655 351.303 9.09655 352.788 7.41719 353.743C5.73782 354.699 2.93888 354.699 1.25952 353.743C-0.419841 352.788 -0.419841 351.303 1.25952 350.347C2.93888 349.392 5.62586 349.392 7.41719 350.347Z" fill="#05D4F5"/>
<path d="M82.5406 348.649C82.5406 348.862 82.4287 349.074 82.2048 349.074L47.4979 368.071L44.3631 369.769C44.2512 369.769 44.1392 369.875 44.0272 369.875C43.8033 369.875 43.6914 369.769 43.5794 369.556C43.4675 369.344 43.4675 368.92 43.8033 368.813L46.4903 367.328L80.8613 348.543L68.0981 341.539C67.8742 341.433 67.7622 341.221 67.7622 341.114C67.7622 340.902 67.8742 340.69 68.0981 340.69L80.7493 333.792L82.6526 332.73L83.7722 333.367L81.8689 334.428L69.5536 341.221L82.3167 348.225C82.4287 348.331 82.5406 348.543 82.5406 348.649Z" fill="#05D4F5"/>
<path d="M46.9382 367.752C48.6175 368.707 48.6175 370.193 46.9382 371.148C45.2588 372.103 42.4599 372.103 40.7805 371.148C39.1012 370.193 39.1012 368.707 40.7805 367.752C42.4599 366.797 45.2588 366.797 46.9382 367.752Z" fill="#05D4F5"/>
<path d="M192.371 407.974C192.371 408.186 192.259 408.399 192.035 408.399L158.224 426.865L154.193 429.093C154.081 429.093 153.97 429.199 153.858 429.199C153.634 429.199 153.522 429.093 153.41 428.881C153.298 428.669 153.298 428.244 153.634 428.138L157.216 426.228L190.692 407.868L177.928 400.864C177.705 400.757 177.593 400.545 177.593 400.439C177.593 400.227 177.705 400.015 177.928 400.015L189.908 393.435L191.811 392.373L192.931 393.01L191.027 394.071L179.384 400.439L192.147 407.443C192.259 407.656 192.371 407.868 192.371 407.974Z" fill="#05D4F5"/>
<path d="M157.664 426.546C159.344 427.501 159.344 428.987 157.664 429.942C155.985 430.897 153.186 430.897 151.507 429.942C149.827 428.987 149.827 427.501 151.507 426.546C153.186 425.591 155.873 425.591 157.664 426.546Z" fill="#05D4F5"/>
<path d="M60.1491 366.797C61.8285 367.752 61.8285 369.238 60.1491 370.193C58.4698 371.148 55.6708 371.148 53.9915 370.193C52.3121 369.238 52.3121 367.752 53.9915 366.797C55.6708 365.948 58.4698 365.948 60.1491 366.797Z" fill="#05D4F5"/>
<path d="M66.7546 381.761C68.434 382.716 68.434 384.202 66.7546 385.157C65.0752 386.112 62.2763 386.112 60.5969 385.157C58.9176 384.202 58.9176 382.716 60.5969 381.761C62.2763 380.806 64.9633 380.806 66.7546 381.761Z" fill="#05D4F5"/>
<path d="M103.365 390.357C105.044 391.312 105.044 392.798 103.365 393.753C101.686 394.708 98.8866 394.708 97.2073 393.753C95.5279 392.798 95.5279 391.312 97.2073 390.357C98.8866 389.402 101.686 389.402 103.365 390.357Z" fill="#05D4F5"/>
<path d="M103.477 402.986C105.156 403.941 105.156 405.427 103.477 406.382C101.797 407.337 98.9982 407.337 97.3188 406.382C95.6395 405.427 95.6395 403.941 97.3188 402.986C98.9982 402.031 101.797 402.031 103.477 402.986Z" fill="#05D4F5"/>
<path d="M129.675 406.594C131.354 407.55 131.354 409.035 129.675 409.99C127.995 410.946 125.196 410.946 123.517 409.99C121.838 409.035 121.838 407.55 123.517 406.594C125.196 405.639 127.883 405.639 129.675 406.594Z" fill="#05D4F5"/>
<path d="M142.55 411.37C144.229 412.325 144.229 413.811 142.55 414.766C140.87 415.721 138.071 415.721 136.392 414.766C134.713 413.811 134.713 412.325 136.392 411.37C138.071 410.415 140.758 410.415 142.55 411.37Z" fill="#05D4F5"/>
<path d="M383.594 366.266C383.483 366.479 383.259 366.585 383.147 366.585C383.035 366.585 382.923 366.585 382.811 366.479L379.34 364.568L344.857 345.678C344.633 345.572 344.521 345.359 344.521 345.253C344.521 345.041 344.633 344.829 344.857 344.829L357.62 337.824L346.201 331.563L344.297 330.502L345.417 329.865L347.32 330.926L359.076 337.4C359.3 337.506 359.412 337.718 359.412 337.824C359.412 338.037 359.3 338.249 359.076 338.249L346.313 345.253L380.572 364.038L383.371 365.523C383.594 365.63 383.706 365.948 383.594 366.266Z" fill="#05D4F5"/>
<path d="M264.696 431.428C264.584 431.64 264.36 431.746 264.248 431.746C264.136 431.746 264.024 431.746 263.912 431.64L260.553 429.836L226.07 410.946C225.846 410.839 225.734 410.627 225.734 410.521C225.734 410.309 225.846 410.097 226.07 410.097L238.833 403.092L227.638 396.937L225.734 395.876L226.854 395.239L228.757 396.3L240.289 402.562C240.513 402.668 240.625 402.88 240.625 402.986C240.625 403.198 240.513 403.411 240.289 403.411L227.526 410.415L261.897 429.199L264.472 430.685C264.808 430.897 264.92 431.216 264.696 431.428Z" fill="#05D4F5"/>
<path d="M323.361 396.406C323.249 396.618 323.025 396.725 322.914 396.725C322.802 396.725 322.69 396.725 322.578 396.618L319.443 394.92L293.245 380.593C293.021 380.487 292.909 380.275 292.909 380.169C292.909 379.957 293.021 379.744 293.245 379.744L302.873 374.438L294.14 369.556L293.021 368.919L285.744 364.887L283.84 363.825L284.96 363.189L286.863 364.25L294.14 368.283L295.26 368.919L304.217 373.907C304.44 374.014 304.552 374.226 304.552 374.332C304.552 374.544 304.44 374.756 304.217 374.756L294.588 380.063L320.786 394.39L323.025 395.557C323.361 395.876 323.473 396.194 323.361 396.406Z" fill="#05D4F5"/>
<path d="M370.719 395.027C370.607 395.239 370.383 395.345 370.271 395.345C370.16 395.345 370.048 395.345 369.936 395.239L366.577 393.435L318.995 367.328C318.771 367.222 318.659 367.009 318.659 366.903C318.659 366.691 318.771 366.479 318.995 366.479L336.46 356.927L318.323 346.951L316.42 345.89L317.539 345.253L319.443 346.315L337.916 356.397C338.14 356.503 338.252 356.715 338.252 356.821C338.252 357.033 338.14 357.246 337.916 357.246L320.45 366.797L367.92 392.798L370.495 394.284C370.831 394.39 370.943 394.708 370.719 395.027Z" fill="#05D4F5"/>
<path d="M319.667 408.611C319.555 408.823 319.331 408.929 319.219 408.929C319.107 408.929 318.995 408.929 318.883 408.823L315.972 407.231L282.273 388.765L263.688 398.953C263.464 399.059 263.24 399.059 263.128 398.953L243.312 388.128L241.408 387.067L242.528 386.43L244.431 387.492L263.352 397.786L281.937 387.598C282.161 387.492 282.385 387.492 282.497 387.598L317.092 406.488L319.443 407.762C319.667 407.974 319.779 408.292 319.667 408.611Z" fill="#05D4F5"/>
<path d="M370.272 365.311C370.16 365.523 369.936 365.63 369.824 365.63C369.712 365.63 369.6 365.63 369.488 365.524L366.241 363.719L326.832 342.176L324.929 341.114L326.048 340.478L327.952 341.539L367.361 363.083L369.936 364.568C370.272 364.674 370.383 364.993 370.272 365.311Z" fill="#05D4F5"/>
<path d="M400.612 348.437C400.5 348.649 400.276 348.755 400.164 348.755C400.052 348.755 399.94 348.755 399.828 348.649L396.246 346.633L357.396 325.302L355.493 324.24L356.613 323.604L358.516 324.665L397.365 345.89L400.388 347.588C400.724 347.8 400.836 348.119 400.612 348.437Z" fill="#05D4F5"/>
<path d="M334.893 384.308C334.781 384.52 334.557 384.626 334.445 384.626C334.333 384.626 334.221 384.626 334.109 384.52L330.527 382.61L300.41 366.16L299.291 365.523L291.901 361.491L289.998 360.429L291.118 359.793L293.021 360.854L300.41 364.887L301.53 365.523L331.534 381.973L334.669 383.671C334.893 383.777 335.005 384.096 334.893 384.308Z" fill="#05D4F5"/>
<path d="M277.794 415.934C277.682 416.146 277.459 416.252 277.347 416.252C277.235 416.252 277.123 416.252 277.011 416.146L273.652 414.342L234.579 393.01L232.676 391.949L233.795 391.312L235.698 392.373L274.772 413.811L277.459 415.297C277.906 415.297 278.018 415.615 277.794 415.934Z" fill="#05D4F5"/>
<path d="M319.89 355.441L301.529 365.523L300.41 366.054L295.372 368.919L294.252 369.45L271.189 382.079L267.718 383.989L267.158 383.034L270.181 381.336L293.021 368.813L294.252 368.283L299.29 365.523L300.41 364.887L317.651 355.441L310.15 351.302L308.247 350.241L309.366 349.711L311.27 350.666L319.89 355.441Z" fill="#05D4F5"/>
<path d="M266.823 429.73C268.502 430.685 268.502 432.171 266.823 433.126C265.144 434.081 262.345 434.081 260.665 433.126C258.986 432.171 258.986 430.685 260.665 429.73C262.345 428.775 265.144 428.775 266.823 429.73Z" fill="#05D4F5"/>
<path d="M280.258 414.023C281.937 414.978 281.937 416.464 280.258 417.419C278.579 418.374 275.78 418.374 274.1 417.419C272.421 416.464 272.421 414.978 274.1 414.023C275.78 413.174 278.579 413.174 280.258 414.023Z" fill="#05D4F5"/>
<path d="M270.293 381.442C271.973 382.398 271.973 383.883 270.293 384.838C268.614 385.794 265.815 385.794 264.135 384.838C262.456 383.883 262.456 382.398 264.135 381.442C265.815 380.487 268.502 380.487 270.293 381.442Z" fill="#05D4F5"/>
<path d="M322.69 406.913C324.369 407.868 324.369 409.354 322.69 410.309C321.011 411.264 318.212 411.264 316.532 410.309C314.853 409.354 314.853 407.868 316.532 406.913C318.212 405.958 320.899 405.958 322.69 406.913Z" fill="#05D4F5"/>
<path d="M325.041 395.133C326.72 396.088 326.72 397.574 325.041 398.529C323.362 399.484 320.563 399.484 318.883 398.529C317.204 397.574 317.204 396.088 318.883 395.133C320.563 394.178 323.362 394.178 325.041 395.133Z" fill="#05D4F5"/>
<path d="M337.468 382.079C339.147 383.034 339.147 384.52 337.468 385.475C335.789 386.43 332.99 386.43 331.31 385.475C329.631 384.52 329.631 383.034 331.31 382.079C332.99 381.124 335.789 381.124 337.468 382.079Z" fill="#05D4F5"/>
<path d="M372.847 393.329C374.526 394.284 374.526 395.77 372.847 396.725C371.167 397.68 368.368 397.68 366.689 396.725C365.01 395.77 365.01 394.284 366.689 393.329C368.368 392.373 371.167 392.373 372.847 393.329Z" fill="#05D4F5"/>
<path d="M369.6 367.646C372.011 367.646 373.966 366.553 373.966 365.205C373.966 363.857 372.011 362.764 369.6 362.764C367.188 362.764 365.233 363.857 365.233 365.205C365.233 366.553 367.188 367.646 369.6 367.646Z" fill="#05D4F5"/>
<path d="M385.722 364.356C387.401 365.311 387.401 366.797 385.722 367.752C384.043 368.707 381.244 368.707 379.564 367.752C377.885 366.797 377.885 365.311 379.564 364.356C381.244 363.507 383.931 363.507 385.722 364.356Z" fill="#05D4F5"/>
<path d="M403.075 346.208C404.755 347.164 404.755 348.649 403.075 349.604C401.396 350.56 398.597 350.56 396.918 349.604C395.238 348.649 395.238 347.164 396.918 346.208C398.597 345.253 401.396 345.253 403.075 346.208Z" fill="#05D4F5"/>
<path d="M169.308 215.355C169.308 215.567 169.196 215.673 169.084 215.779L160.015 220.979L158.896 221.616L147.476 228.09L146.356 228.726L135.608 234.776L165.725 251.225L167.628 252.287L166.509 252.923L164.605 251.862L134.153 235.306C133.929 235.2 133.817 234.988 133.817 234.882C133.817 234.67 133.929 234.457 134.041 234.457L145.013 228.196L146.132 227.559L157.552 221.085L158.672 220.449L167.516 215.461L150.611 206.228L147.7 204.636C147.476 204.53 147.364 204.105 147.476 203.893C147.588 203.681 148.036 203.575 148.26 203.681L151.618 205.485L168.86 214.93C169.196 215.036 169.308 215.142 169.308 215.355Z" fill="#05D4F5"/>
<path d="M66.5306 306.942L36.9738 290.811L49.737 283.806C49.9609 283.7 50.0729 283.488 50.0729 283.382C50.0729 283.169 49.9609 282.957 49.737 282.957L32.3836 273.512L29.1368 271.708C28.9129 271.602 28.465 271.602 28.3531 271.92C28.2411 272.132 28.2411 272.557 28.577 272.663L31.0401 274.043L48.2815 283.488L35.5184 290.492C35.2945 290.598 35.1825 290.81 35.1825 290.917C35.1825 291.129 35.2945 291.341 35.5184 291.341L65.2991 307.685L66.5306 306.942Z" fill="#05D4F5"/>
<path d="M126.652 274.892L125.532 275.528L123.629 274.467L103.14 263.218C102.917 263.111 102.805 262.899 102.805 262.793C102.805 262.581 102.917 262.369 103.14 262.369L112.769 257.062L89.0338 243.796L86.7947 242.523C86.5708 242.417 86.4588 241.992 86.5708 241.78C86.6827 241.568 87.1306 241.462 87.3545 241.568L90.2654 243.16L114.112 256.532C114.336 256.638 114.448 256.85 114.448 256.956C114.448 257.168 114.336 257.275 114.112 257.381L104.484 262.687L124.748 273.724L126.652 274.892Z" fill="#05D4F5"/>
<path d="M152.29 260.777L151.171 261.413L149.267 260.352L117.359 242.841C117.136 242.735 117.024 242.523 117.024 242.417C117.024 242.205 117.136 241.992 117.359 241.992L131.466 234.245L113.553 224.481L109.746 222.359C109.522 222.253 109.41 221.828 109.522 221.616C109.634 221.404 110.082 221.298 110.306 221.404L114.672 223.739L132.922 233.714C133.145 233.821 133.257 234.033 133.257 234.139C133.257 234.245 133.145 234.563 132.922 234.563L118.815 242.311L150.499 259.609L152.29 260.777Z" fill="#05D4F5"/>
<path d="M112.209 282.851L111.09 283.488L109.186 282.426L88.3622 270.965L73.4718 279.137C73.2479 279.243 73.024 279.243 72.9121 279.137L52.7597 268.099L50.2966 266.72C50.0727 266.614 49.9608 266.189 50.0727 265.977C50.1847 265.765 50.6325 265.658 50.8564 265.765L53.8793 267.357L73.2479 277.969L88.1383 269.797C88.3622 269.691 88.5861 269.691 88.6981 269.797L110.418 281.684L112.209 282.851Z" fill="#05D4F5"/>
<path d="M179.608 245.707L178.488 246.344L176.585 245.282L146.356 228.727L145.237 228.09L135.832 222.996L133.369 221.616C133.145 221.51 133.033 221.085 133.145 220.873C133.257 220.661 133.705 220.555 133.929 220.661L137.064 222.359L146.244 227.453L147.364 228.09L177.592 244.645L179.608 245.707Z" fill="#05D4F5"/>
<path d="M192.371 238.702L191.251 239.339L189.348 238.278L158.896 221.616L157.776 220.979L122.621 201.77L120.83 200.815C120.606 200.709 120.494 200.285 120.606 200.072C120.718 199.86 121.166 199.754 121.39 199.86L124.077 201.346L159.008 220.449L160.127 221.085L190.58 237.747L192.371 238.702Z" fill="#05D4F5"/>
<path d="M146.132 264.173L145.013 264.81L143.11 263.748L102.805 241.674L100.118 240.188C99.894 240.082 99.7821 239.658 99.894 239.445C100.006 239.233 100.454 239.127 100.678 239.233L104.036 241.037L144.229 263.112L146.132 264.173Z" fill="#05D4F5"/>
<path d="M89.3699 295.374L88.2504 296.011L86.3471 294.949L68.3219 285.186L63.9556 282.851C63.7317 282.745 63.6197 282.32 63.7317 282.108C63.8436 281.896 64.2915 281.79 64.5154 281.896L69.4415 284.655L87.3547 294.525L89.3699 295.374Z" fill="#05D4F5"/>
<path d="M32.3835 270.01C34.0629 270.965 34.0629 272.451 32.3835 273.406C30.7041 274.361 27.9052 274.361 26.2258 273.406C24.5465 272.451 24.5465 270.965 26.2258 270.01C27.9052 269.055 30.7041 269.055 32.3835 270.01Z" fill="#05D4F5"/>
<path d="M69.1057 281.471C70.785 282.426 70.785 283.912 69.1057 284.867C67.4263 285.823 64.6274 285.823 62.948 284.867C61.2686 283.912 61.2686 282.426 62.948 281.471C64.6274 280.516 67.4263 280.516 69.1057 281.471Z" fill="#05D4F5"/>
<path d="M52.9836 264.597C54.663 265.552 54.663 267.038 52.9836 267.993C51.3042 268.948 48.5053 268.948 46.8259 267.993C45.1466 267.038 45.1466 265.552 46.8259 264.597C48.5053 263.642 51.1923 263.642 52.9836 264.597Z" fill="#05D4F5"/>
<path d="M89.8178 240.082C91.4972 241.037 91.4972 242.523 89.8178 243.478C88.1385 244.433 85.3395 244.433 83.6602 243.478C81.9808 242.523 81.9808 241.037 83.6602 240.082C85.3395 239.127 88.1385 239.127 89.8178 240.082Z" fill="#05D4F5"/>
<path d="M59.7014 256.532C61.3807 257.487 61.3807 258.973 59.7014 259.928C58.022 260.883 55.2231 260.883 53.5437 259.928C51.8643 258.973 51.8643 257.487 53.5437 256.532C55.2231 255.577 58.022 255.577 59.7014 256.532Z" fill="#05D4F5"/>
<path d="M119.71 278.712L118.591 279.349L116.688 278.288L68.8817 252.18L60.261 256.956L57.0142 258.654C56.7903 258.76 56.3425 258.76 56.2305 258.442C56.1186 258.23 56.1186 257.805 56.4544 257.699L59.1414 256.213L68.6578 251.013C68.8817 250.907 69.1056 250.907 69.2176 251.013L117.807 277.651L119.71 278.712Z" fill="#05D4F5"/>
<path d="M199.536 234.776L198.416 235.412L196.513 234.351L175.689 222.996C175.465 222.89 175.353 222.677 175.353 222.571C175.353 222.465 175.465 222.147 175.689 222.147L185.317 216.84L161.694 203.468L159.455 202.195C159.231 202.089 159.119 201.664 159.231 201.452C159.343 201.24 159.791 201.134 160.015 201.24L162.926 202.832L186.885 216.204C187.109 216.31 187.221 216.522 187.221 216.628C187.221 216.84 187.109 217.053 186.885 217.053L177.256 222.359L197.745 233.608L199.536 234.776Z" fill="#05D4F5"/>
<path d="M162.478 199.754C164.158 200.709 164.158 202.195 162.478 203.15C160.799 204.105 158 204.105 156.321 203.15C154.641 202.195 154.641 200.709 156.321 199.754C158 198.799 160.799 198.799 162.478 199.754Z" fill="#05D4F5"/>
<path d="M103.7 237.853C105.38 238.809 105.38 240.294 103.7 241.249C102.021 242.205 99.2221 242.205 97.5427 241.249C95.8634 240.294 95.8634 238.809 97.5427 237.853C99.2221 237.004 101.909 237.004 103.7 237.853Z" fill="#05D4F5"/>
<path d="M114.001 220.767C115.68 221.722 115.68 223.208 114.001 224.163C112.321 225.118 109.522 225.118 107.843 224.163C106.164 223.208 106.164 221.722 107.843 220.767C109.522 219.812 112.321 219.812 114.001 220.767Z" fill="#05D4F5"/>
<path d="M124.077 197.844C125.756 198.799 125.756 200.285 124.077 201.24C122.397 202.195 119.599 202.195 117.919 201.24C116.24 200.285 116.24 198.799 117.919 197.844C119.599 196.889 122.397 196.889 124.077 197.844Z" fill="#05D4F5"/>
<path d="M151.282 202.513C152.962 203.468 152.962 204.954 151.282 205.909C149.603 206.865 146.804 206.865 145.125 205.909C143.445 204.954 143.445 203.468 145.125 202.513C146.804 201.558 149.491 201.558 151.282 202.513Z" fill="#05D4F5"/>
<path d="M136.84 219.175C138.519 220.13 138.519 221.616 136.84 222.571C135.16 223.526 132.361 223.526 130.682 222.571C129.003 221.616 129.003 220.13 130.682 219.175C132.361 218.22 135.16 218.22 136.84 219.175Z" fill="#05D4F5"/>
<path d="M362.546 277.757C362.546 277.969 362.434 278.075 362.211 278.181L333.661 293.782L331.758 294.843L330.639 294.207L332.542 293.145L360.755 277.651L334.781 262.899L333.661 262.263L327.28 258.654C327.056 258.548 326.944 258.336 327.056 258.23C327.056 258.017 327.168 257.911 327.392 257.805L344.521 248.36L347.88 246.556C348.104 246.45 348.552 246.45 348.664 246.768C348.776 246.98 348.776 247.405 348.44 247.511L345.641 249.103L328.735 258.336L334.893 261.838L336.012 262.475L362.211 277.332C362.546 277.439 362.546 277.545 362.546 277.757Z" fill="#05D4F5"/>
<path d="M335.229 243.478L332.99 244.752L309.255 258.017L318.883 263.324C319.107 263.43 319.219 263.642 319.219 263.748C319.219 263.961 319.107 264.173 318.883 264.173L299.178 274.998L297.275 276.059L296.156 275.422L298.059 274.361L317.539 263.748L307.911 258.442C307.687 258.336 307.575 258.124 307.575 258.017C307.575 257.805 307.687 257.593 307.911 257.593L331.87 244.221L334.781 242.629C335.005 242.523 335.453 242.523 335.565 242.841C335.676 242.947 335.565 243.372 335.229 243.478Z" fill="#05D4F5"/>
<path d="M310.822 219.918L307.127 221.934L288.654 232.016L303.097 239.87C303.321 239.976 303.433 240.188 303.433 240.294C303.433 240.507 303.321 240.719 303.097 240.719L270.069 258.76L268.166 259.822L267.047 259.185L268.95 258.124L301.641 240.188L287.199 232.335C286.975 232.229 286.863 232.016 286.863 231.91C286.863 231.698 286.975 231.486 287.199 231.486L306.12 221.085L310.262 218.857C310.486 218.751 310.934 218.751 311.046 219.069C311.158 219.387 311.046 219.706 310.822 219.918Z" fill="#05D4F5"/>
<path d="M393.447 288.476L390.984 289.855L374.302 298.982C374.078 299.088 373.854 299.088 373.742 298.982L361.203 292.084L345.865 300.468L343.961 301.529L342.842 300.893L344.745 299.831L360.867 291.023C361.091 290.917 361.315 290.917 361.427 291.023L373.966 297.921L389.64 289.325L392.775 287.627C392.999 287.521 393.447 287.521 393.559 287.839C393.782 288.051 393.671 288.37 393.447 288.476Z" fill="#05D4F5"/>
<path d="M287.535 222.783L285.072 224.163L245.775 245.707L243.871 246.768L242.752 246.131L244.655 245.07L283.84 223.632L286.975 221.934C287.199 221.828 287.647 221.828 287.759 222.147C287.871 222.359 287.759 222.677 287.535 222.783Z" fill="#05D4F5"/>
<path d="M301.417 201.77L299.626 202.726L233.459 238.915L231.556 239.976L230.436 239.339L232.34 238.278L298.283 202.195L300.97 200.709C301.193 200.603 301.641 200.603 301.753 200.921C301.753 201.24 301.641 201.558 301.417 201.77Z" fill="#05D4F5"/>
<path d="M322.018 241.143L319.331 242.629L279.81 264.279L277.907 265.34L276.787 264.703L278.69 263.642L318.211 241.992L321.57 240.188C321.794 240.082 322.242 240.082 322.354 240.4C322.466 240.719 322.354 241.037 322.018 241.143Z" fill="#05D4F5"/>
<path d="M279.138 240.613L274.771 242.947L257.754 252.287L255.851 253.348L254.731 252.711L256.634 251.65L273.54 242.417L278.466 239.658C278.69 239.551 279.138 239.551 279.25 239.87C279.586 240.188 279.474 240.507 279.138 240.613Z" fill="#05D4F5"/>
<path d="M277.123 243.478C279.534 243.478 281.489 242.385 281.489 241.037C281.489 239.689 279.534 238.596 277.123 238.596C274.711 238.596 272.756 239.689 272.756 241.037C272.756 242.385 274.711 243.478 277.123 243.478Z" fill="#05D4F5"/>
<path d="M389.976 286.035C388.296 286.99 388.296 288.476 389.976 289.431C391.655 290.386 394.454 290.386 396.133 289.431C397.813 288.476 397.813 286.99 396.133 286.035C394.454 285.186 391.655 285.186 389.976 286.035Z" fill="#05D4F5"/>
<path d="M332.206 241.037C330.526 241.992 330.526 243.478 332.206 244.433C333.885 245.388 336.684 245.388 338.363 244.433C340.043 243.478 340.043 241.992 338.363 241.037C336.684 240.082 333.885 240.082 332.206 241.037Z" fill="#05D4F5"/>
<path d="M362.323 257.487C360.643 258.442 360.643 259.928 362.323 260.883C364.002 261.838 366.801 261.838 368.48 260.883C370.16 259.928 370.16 258.442 368.48 257.487C366.801 256.532 364.002 256.532 362.323 257.487Z" fill="#05D4F5"/>
<path d="M365.905 259.397C365.793 259.609 365.345 259.715 365.121 259.609L361.874 257.805L353.254 253.029L336.236 262.369L335.117 263.005L306.232 278.818L304.328 279.879L303.209 279.243L305.112 278.181L333.885 262.475L335.005 261.838L352.918 252.074C353.142 251.968 353.366 251.968 353.478 252.074L362.994 257.275L365.681 258.76C365.905 258.866 366.017 259.185 365.905 259.397Z" fill="#05D4F5"/>
<path d="M262.568 203.15L260.329 204.424L236.594 217.689L246.222 222.996C246.446 223.102 246.558 223.314 246.558 223.42C246.558 223.632 246.446 223.845 246.222 223.845L226.07 234.882L224.167 235.943L217.002 239.87C216.89 239.87 216.778 239.976 216.666 239.976C216.442 239.976 216.218 239.87 216.218 239.658C216.106 239.445 216.106 239.021 216.442 238.915L223.047 235.306L224.951 234.245L244.879 223.314L235.251 218.008C235.027 217.902 234.915 217.689 234.915 217.583C234.915 217.371 235.027 217.159 235.251 217.159L259.21 203.787L262.12 202.195C262.344 202.089 262.792 202.089 262.904 202.407C262.904 202.726 262.904 203.044 262.568 203.15Z" fill="#05D4F5"/>
<path d="M259.545 200.709C257.866 201.664 257.866 203.15 259.545 204.105C261.225 205.06 264.023 205.06 265.703 204.105C267.382 203.15 267.382 201.664 265.703 200.709C264.023 199.754 261.225 199.754 259.545 200.709Z" fill="#05D4F5"/>
<path d="M318.435 238.809C316.756 239.764 316.756 241.249 318.435 242.205C320.114 243.16 322.913 243.16 324.593 242.205C326.272 241.249 326.272 239.764 324.593 238.809C322.913 237.96 320.114 237.96 318.435 238.809Z" fill="#05D4F5"/>
<path d="M310.038 222.571C312.449 222.571 314.404 221.478 314.404 220.13C314.404 218.782 312.449 217.689 310.038 217.689C307.627 217.689 305.672 218.782 305.672 220.13C305.672 221.478 307.627 222.571 310.038 222.571Z" fill="#05D4F5"/>
<path d="M297.947 198.799C296.268 199.754 296.268 201.24 297.947 202.195C299.626 203.15 302.425 203.15 304.105 202.195C305.784 201.24 305.784 199.754 304.105 198.799C302.425 197.844 299.738 197.844 297.947 198.799Z" fill="#05D4F5"/>
<path d="M345.305 245.495C343.625 246.45 343.625 247.935 345.305 248.891C346.984 249.846 349.783 249.846 351.462 248.891C353.142 247.935 353.142 246.45 351.462 245.495C349.783 244.539 346.984 244.539 345.305 245.495Z" fill="#05D4F5"/>
<path d="M284.064 220.343C282.385 221.298 282.385 222.783 284.064 223.739C285.743 224.694 288.542 224.694 290.222 223.739C291.901 222.783 291.901 221.298 290.222 220.343C288.542 219.387 285.743 219.387 284.064 220.343Z" fill="#05D4F5"/>
</g>
<path d="M165.389 307.333C186.406 318.831 220.586 318.776 241.733 307.204C262.881 295.632 262.988 276.93 241.972 265.432C220.955 253.934 186.775 253.989 165.627 265.561C144.484 277.133 144.377 295.834 165.389 307.333Z" fill="#EEF1F5"/>
<path opacity="0.56" d="M50.8437 7.87133L49.5988 8.55794C25.3826 21.895 11.4558 39.6194 10.3909 58.4636L10.0846 171.063C11.1495 152.219 25.0714 134.5 49.2925 121.158L50.5373 120.471C55.4 117.794 60.6566 115.305 66.166 113.079L66.4724 0.479248C60.9678 2.70516 55.7113 5.19378 50.8437 7.87133Z" fill="url(#paint0_linear_35_18)"/>
<path d="M10.3958 58.459L10.0894 171.063L9.00014 171.041L9.30651 58.4405L10.3958 58.459Z" fill="#2197FF"/>
<path d="M65.8257 0L66.4724 0.483945C60.9678 2.70986 55.7113 5.19848 50.8437 7.87602L49.5988 8.55799C25.3826 21.895 11.4558 39.6194 10.3909 58.4637L9.29678 58.4452C10.3714 39.4489 24.4052 21.5816 48.8208 8.1386L50.0657 7.45663C54.9721 4.74683 60.2725 2.24435 65.8257 0Z" fill="#A2FFFF"/>
<path d="M101.178 127.513C99.1112 128.647 96.8598 130.499 94.9293 132.776C91.4087 136.919 90.0909 141.159 91.895 142.532L105.311 152.851C111.813 157.851 119.005 162.091 126.863 165.561L133.841 168.644C135.465 169.363 138.008 168.805 140.862 167.243C142.754 166.211 146.129 162.916 146.756 162.897C153.121 156.998 156.788 149.436 154.77 146.367L154.055 145.27C150.991 140.56 146.771 136.997 141.485 134.661C139.248 133.675 136.826 132.905 134.225 132.366L105.588 126.389C104.441 126.149 102.885 126.582 101.178 127.513Z" fill="#CFD0E0"/>
<path d="M88.7776 129.126C92.449 124.799 96.733 121.269 100.652 119.126C103.886 117.356 106.867 116.531 109.04 116.987L137.672 122.964C140.424 123.536 142.992 124.352 145.36 125.393C150.962 127.868 155.431 131.642 158.674 136.624L159.389 137.721C162.661 142.753 156.724 154.998 146.342 164.635C143.123 167.621 139.826 170.027 136.743 171.709C132.104 174.248 127.961 175.156 125.316 173.99L118.338 170.907C110.349 167.377 103.04 163.063 96.4266 157.985L83.0105 147.666C79.5871 145.035 82.072 137.03 88.7776 129.126ZM105.311 152.851C111.812 157.851 119.004 162.091 126.862 165.561L133.84 168.644C135.464 169.363 138.008 168.805 140.862 167.243C142.754 166.206 146.128 162.916 146.756 162.897C153.121 156.998 156.787 149.436 154.769 146.367L154.055 145.27C150.991 140.56 146.77 136.997 141.484 134.661C139.248 133.675 136.826 132.905 134.224 132.366L105.588 126.389C104.44 126.149 102.884 126.582 101.178 127.513C99.1109 128.647 96.8594 130.499 94.9289 132.776C91.4083 136.919 90.0905 141.159 91.8946 142.532L105.311 152.851Z" fill="#CFD0E0"/>
<path d="M78.6679 120.596C82.3392 116.268 86.6281 112.738 90.5426 110.595C93.7763 108.825 96.7571 108.001 98.9308 108.457L127.562 114.434C130.315 115.006 132.882 115.821 135.25 116.863C138.051 118.102 140.57 119.665 142.792 121.536L152.902 130.066C150.68 128.19 148.161 126.628 145.36 125.393C142.992 124.347 140.424 123.536 137.672 122.964L109.04 116.987C106.867 116.536 103.881 117.356 100.652 119.126C96.7377 121.269 92.4488 124.799 88.7774 129.126C82.1593 136.928 79.6501 144.836 82.8887 147.569L72.7791 139.039C69.5406 136.306 72.0498 128.403 78.6679 120.596Z" fill="url(#paint1_linear_35_18)"/>
<path d="M128.184 183.47C128.184 192.046 135.853 288.576 203.683 288.576C271.512 288.576 280.061 186.981 280.061 183.493C276.954 183.497 128.184 183.47 128.184 183.47Z" fill="url(#paint2_linear_35_18)"/>
<path d="M182.862 166.381C194.892 172.778 214.129 172.594 225.819 165.971C237.514 159.344 237.241 148.786 225.211 142.389C213.181 135.993 193.944 136.177 182.254 142.799C170.559 149.426 170.832 159.985 182.862 166.381Z" fill="#C0BACA"/>
<path d="M128.905 177.774C129.357 176.101 130.014 173.875 130.626 172.248C131.278 170.52 132.285 168.257 133.111 166.598C134.565 163.671 136.967 159.934 139.088 157.293C140.294 155.796 143.114 152.284 147.733 148.39C152.358 144.495 156.224 142.246 158.533 140.905C160.012 140.048 162.059 139.02 163.605 138.274C164.816 137.689 166.474 136.979 167.719 136.458C171.147 135.034 173.987 134.172 176.735 133.343C177.109 133.228 180.532 132.209 185.624 131.26C188.974 130.633 192.475 130.209 194.454 130.034C195.767 129.919 197.523 129.753 198.845 129.716C200.163 129.674 201.923 129.596 203.241 129.582C204.564 129.568 206.324 129.619 207.642 129.633C210.404 129.665 213.779 130.015 216.492 130.301C216.531 130.306 220.854 130.785 225.439 131.78C226.898 132.094 228.829 132.559 230.268 132.942C231.566 133.287 233.278 133.822 234.562 134.209C236.157 134.693 238.238 135.481 239.789 136.085C241.054 136.578 242.702 137.325 243.947 137.864C245.615 138.583 247.769 139.693 249.335 140.597C251.63 141.919 254.635 143.781 256.76 145.33C258.861 146.864 261.55 149.062 263.407 150.86C264.968 152.362 267.001 154.427 268.324 156.123C269.082 157.095 270.137 158.362 270.833 159.376C271.893 160.92 273.215 163.035 274.178 164.639C275.083 166.142 276.099 168.252 276.746 169.865C277.636 172.077 278.623 175.096 279.303 177.377C282.484 189.7 275.608 202.692 258.569 212.342C229.339 228.905 181.262 229.361 151.186 213.37C133.179 203.784 125.71 190.47 128.905 177.774ZM182.862 166.381C194.892 172.778 214.129 172.594 225.819 165.971C237.513 159.344 237.241 148.786 225.211 142.389C213.181 135.993 193.944 136.177 182.254 142.799C170.559 149.426 170.831 159.985 182.862 166.381Z" fill="url(#paint3_linear_35_18)"/>
<path d="M186.548 286.295C191.785 287.77 197.484 288.576 203.684 288.576C255.044 288.576 272.418 230.32 277.825 200.517C267.784 193.313 270.974 179.907 265.075 176.649C262.591 175.285 261.093 174.497 261.093 174.497C260.32 175.096 250.628 180.93 247.322 184.871C235.938 198.456 240.422 242.708 233.025 263.741C226.655 281.852 207.832 287.539 186.548 286.295Z" fill="#EBEBEB"/>
<path d="M165.312 178.363C186.771 190.106 221.671 190.046 243.261 178.23C264.851 166.414 264.963 147.32 243.504 135.578C222.045 123.835 187.145 123.895 165.555 135.712C143.965 147.523 143.858 166.621 165.312 178.363Z" fill="#D4D5E6"/>
<path d="M253.079 162.33C251.363 163.321 249.014 164.565 247.196 165.381C242.668 167.404 242.668 167.404 237.966 169.086C236.556 169.589 234.64 170.188 233.186 170.566C230.541 171.252 226.981 172.073 224.302 172.626C222.882 172.921 220.971 173.225 219.527 173.395C218.141 173.557 216.293 173.801 214.902 173.93C213.512 174.064 211.649 174.197 210.249 174.266C208.853 174.34 206.986 174.395 205.59 174.409C204.185 174.423 202.318 174.372 200.912 174.354C199.473 174.336 197.547 174.225 196.113 174.096C193.336 173.838 189.641 173.391 186.879 172.994C185.381 172.778 183.397 172.4 181.924 172.064C180.577 171.755 178.773 171.354 177.44 170.994C175.835 170.566 173.72 169.921 172.135 169.441C170.263 168.87 167.822 167.948 166.013 167.211C163.586 166.225 160.43 164.745 158.116 163.542C156.137 162.515 153.608 160.962 151.726 159.782C150.428 158.966 148.76 157.791 147.559 156.851C145.813 155.482 143.567 153.565 141.913 152.095C145.21 155.192 149.334 158.095 154.274 160.704C183.1 175.935 228.888 175.497 256.542 159.722C260.51 157.459 263.884 155.003 266.676 152.413C265.319 153.625 263.461 155.192 262.046 156.344C261.38 156.888 260.442 157.551 259.741 158.063C257.835 159.459 255.141 161.141 253.079 162.33Z" fill="url(#paint4_linear_35_18)"/>
<path d="M196.112 174.096C157.955 174.096 118.246 138.177 118.246 113.683C118.246 104.876 118.849 90.691 123.425 76.1327C131.58 50.1913 283.519 63.0353 286.559 81.497C287.298 85.9718 287.453 89.1841 287.648 90.2533C288.645 95.7374 294.835 126.693 271.304 148.122C247.783 169.557 225.041 174.096 196.112 174.096Z" fill="url(#paint5_linear_35_18)"/>
<path d="M122.316 79.9624C122.807 78.1374 123.522 75.7179 124.188 73.9436C124.898 72.0588 125.997 69.5977 126.897 67.7912C128.482 64.6067 131.098 60.5327 133.408 57.657C134.721 56.0256 137.789 52.2053 142.827 47.9608C147.86 43.7164 152.071 41.2692 154.59 39.8083C156.2 38.8728 158.432 37.7575 160.114 36.9418C161.432 36.3012 163.236 35.5316 164.597 34.9648C168.332 33.4117 171.425 32.4762 174.415 31.5729C174.824 31.4485 178.553 30.3378 184.097 29.3055C187.744 28.6235 191.561 28.1626 193.715 27.969C195.15 27.8446 197.056 27.6648 198.495 27.6233C199.93 27.5772 201.846 27.4898 203.285 27.4759C204.724 27.4621 206.64 27.5128 208.08 27.5312C211.09 27.5681 214.766 27.9506 217.718 28.2548C217.761 28.2594 222.468 28.7848 227.462 29.8632C229.048 30.2088 231.153 30.7111 232.719 31.1305C234.134 31.5084 235.996 32.089 237.397 32.513C239.138 33.0384 241.399 33.8955 243.091 34.5545C244.472 35.0891 246.262 35.9049 247.618 36.4902C249.437 37.2736 251.781 38.481 253.488 39.4626C255.987 40.9051 259.26 42.9283 261.574 44.6196C263.865 46.2879 266.787 48.689 268.815 50.643C270.512 52.279 272.729 54.5279 274.174 56.3713C275 57.4312 276.148 58.8139 276.906 59.9153C278.064 61.5974 279.503 63.9016 280.549 65.6482C281.531 67.2843 282.639 69.5839 283.349 71.3443C284.317 73.7546 285.392 77.0452 286.131 79.5246C289.593 92.9492 282.105 107.097 263.549 117.605C231.712 135.642 179.351 136.145 146.596 118.725C126.97 108.291 118.839 93.7879 122.316 79.9624Z" fill="url(#paint6_linear_35_18)"/>
<path d="M119.228 106.18C119.058 111.236 119.272 114.102 120.113 117.213C123.147 126.766 131.209 135.541 144.927 142.79C168.215 155.1 200.824 158.796 229.635 154.007C238.626 152.09 241.987 151.371 246.383 114.969C246.971 104.733 243.266 103.991 239.969 104.494C212.008 112.623 176.51 110.411 152.401 97.6729C136.68 89.3637 128.924 78.2296 129.235 67.1461C129.221 66.9203 129.201 66.6207 129.182 66.3949C128.647 66.6714 128.292 66.8558 127.932 67.3489C127.932 67.3489 120.546 80.6813 119.228 106.18Z" fill="#003447"/>
<path d="M193.234 139.269C195.782 139.269 197.815 138.592 199.278 137.251C200.815 135.841 201.593 133.808 201.583 131.214L201.574 128.204C201.559 122.937 197.494 118.596 192.325 118.328L191.265 118.273C188.858 118.153 186.407 118.969 184.53 120.6C182.497 122.37 181.282 124.941 181.194 127.66L181.092 130.808C180.863 137.721 185.595 138.891 189.179 139.168L189.32 139.173L192.719 139.256C192.894 139.269 193.064 139.269 193.234 139.269ZM190.774 123.14C190.847 123.14 190.915 123.14 190.988 123.144L192.048 123.199C194.455 123.324 196.424 125.582 196.434 128.223L196.444 131.232C196.444 132.071 196.322 133.186 195.704 133.748C195.063 134.338 193.803 134.426 192.884 134.389L189.534 134.301C186.616 134.071 186.154 133.587 186.237 130.956L186.339 127.808C186.387 126.393 186.995 125.075 188.012 124.19C188.799 123.508 189.777 123.14 190.774 123.14Z" fill="#00BBFF"/>
<path d="M142.555 122.891C143.591 122.891 144.432 122.642 145.064 122.347C146.382 121.734 148.089 120.296 148.745 116.932L149.329 113.927C150.335 108.77 148.619 103.788 145.162 101.811L144.437 101.401C142.696 100.41 140.741 100.272 138.937 101.019C136.564 101.996 134.804 104.364 134.104 107.507L133.413 110.604C132.3 115.577 134.05 119.591 138.208 121.619L138.976 121.992C140.343 122.651 141.544 122.891 142.555 122.891ZM141.281 105.415C141.412 105.415 141.578 105.457 141.787 105.576L142.507 105.987C143.873 106.765 144.909 109.789 144.272 113.042L143.688 116.047C143.43 117.356 143.007 117.872 142.793 117.973C142.594 118.066 142.054 118.006 141.315 117.651L140.552 117.277C138.529 116.291 137.819 114.383 138.436 111.609L139.127 108.508C139.511 106.789 140.333 105.747 140.985 105.484C141.072 105.447 141.164 105.415 141.281 105.415Z" fill="#00BBFF"/>
<path d="M277.382 183.953C272.369 186.695 268.649 193.267 268.702 200.102L268.726 203.033C268.833 215.623 270.171 227.873 272.709 239.518C273.784 244.445 275.067 249.247 276.56 253.911L293.02 305.305C294.465 309.835 298.651 311.632 302.653 309.434C306.66 307.254 309.257 301.747 308.625 296.765L303.966 259.579C301.71 241.564 298.69 223.877 294.922 206.581L291.571 191.221C290.278 185.281 285.853 181.829 280.713 182.755C280.353 183.511 278.437 183.377 277.382 183.953Z" fill="url(#paint7_linear_35_18)"/>
<path d="M273.229 174.925C274.956 173.981 276.774 173.317 278.646 172.981C287.02 171.478 294.207 177.082 296.317 186.765L299.668 202.125C303.505 219.711 306.573 237.693 308.863 256.012L313.522 293.198C314.708 302.697 309.811 313.089 302.172 317.269C294.538 321.449 286.631 318.057 283.864 309.425L267.404 258.031C265.819 253.09 264.462 248.003 263.324 242.786C260.635 230.458 259.22 217.485 259.108 204.153L259.084 201.217C258.996 190.101 265.05 179.405 273.229 174.925ZM272.709 239.518C273.784 244.445 275.067 249.247 276.56 253.911L293.021 305.305C294.465 309.835 298.652 311.633 302.654 309.434C306.66 307.254 309.257 301.747 308.625 296.765L303.966 259.579C301.71 241.565 298.69 223.872 294.922 206.581L291.571 191.221C290.278 185.281 285.853 181.829 280.713 182.755C280.348 183.511 278.432 183.373 277.377 183.949C272.364 186.691 268.644 193.263 268.697 200.097L268.722 203.028C268.833 215.628 270.171 227.877 272.709 239.518Z" fill="url(#paint8_linear_35_18)"/>
<path d="M263.135 172.331C264.861 171.386 266.68 170.722 268.552 170.386C270.691 170.003 272.753 170.082 274.674 170.575L284.769 173.174C282.848 172.681 280.786 172.598 278.647 172.985C276.77 173.322 274.951 173.99 273.23 174.93C265.051 179.405 258.997 190.106 259.089 201.222L259.113 204.157C259.225 217.485 260.64 230.458 263.329 242.791C264.467 248.007 265.829 253.09 267.409 258.035L283.869 309.43C285.474 314.43 288.8 317.674 292.797 318.702L282.707 316.107C278.705 315.08 275.379 311.835 273.774 306.835L257.314 255.441C255.729 250.501 254.372 245.413 253.234 240.196C250.545 227.868 249.13 214.895 249.018 201.567L248.994 198.627C248.902 187.507 254.956 176.806 263.135 172.331Z" fill="url(#paint9_linear_35_18)"/>
<path d="M208.02 188.285L207.719 300.885L207.587 301.48L207.894 188.88L208.02 188.285Z" fill="#33EAFF"/>
<path opacity="0.57" d="M351.514 140.426C344.779 150.205 334.494 158.943 320.951 166.404L319.711 167.086C290.268 183.299 249.562 191.028 208.025 188.281L207.719 300.881C249.256 303.627 289.966 295.899 319.405 279.686L320.645 279.004C334.193 271.543 344.472 262.805 351.207 253.026L352.228 253.238L352.535 140.638L351.514 140.426Z" fill="url(#paint10_linear_35_18)"/>
<path d="M352.535 140.638L351.514 140.426C344.779 150.205 334.494 158.943 320.951 166.404L319.711 167.086C290.268 183.299 249.562 191.028 208.025 188.281L207.899 188.875C217.911 189.539 228.074 189.59 238.101 189.032C248.191 188.47 258.159 187.29 267.734 185.52C277.484 183.723 286.859 181.308 295.597 178.345C304.588 175.299 312.962 171.653 320.489 167.506L321.729 166.824C335.379 159.307 345.746 150.496 352.535 140.638Z" fill="#4FF4FF"/>
<path opacity="0.56" d="M75.7652 156.883L54.7194 145.366C47.0898 141.191 40.3793 136.546 34.7775 131.564C29.3313 126.72 24.8964 121.522 21.5947 116.121L21.2883 228.721C24.5901 234.122 29.0249 239.316 34.4711 244.164C40.0729 249.15 46.7835 253.791 54.413 257.966L75.4588 269.483C86.0303 275.267 98.1044 280.023 111.35 283.622L111.657 171.022C98.4107 167.427 86.3367 162.667 75.7652 156.883Z" fill="url(#paint11_linear_35_18)"/>
<path d="M112.137 170.487L111.831 283.087L111.35 283.627L111.656 171.027L112.137 170.487Z" fill="#33EAFF"/>
<path d="M22.6298 115.936C29.35 126.932 40.4078 136.693 55.487 144.947L76.5328 156.464C87.0168 162.201 98.9984 166.92 112.137 170.492L111.656 171.027C98.4101 167.427 86.336 162.671 75.7645 156.888L54.7187 145.371C47.0891 141.196 40.3786 136.55 34.7768 131.569C29.3306 126.725 24.8958 121.527 21.594 116.125L22.6298 115.936Z" fill="#4FF4FF"/>
<path d="M168.929 143.786L169.891 140.431C166.872 139.652 158.381 137.265 155.469 135.638L153.601 138.633C157.54 140.832 168.467 143.666 168.929 143.786Z" fill="#00BBFF"/>
<defs>
<linearGradient id="paint0_linear_35_18" x1="10.0918" y1="85.7713" x2="66.4734" y2="85.7713" gradientUnits="userSpaceOnUse">
<stop stop-color="#42ABFF"/>
<stop offset="0.4384" stop-color="#48DCFF"/>
<stop offset="0.9233" stop-color="#4FFFE7"/>
</linearGradient>
<linearGradient id="paint1_linear_35_18" x1="93.8945" y1="154.874" x2="124.311" y2="109.039" gradientUnits="userSpaceOnUse">
<stop offset="0.6035" stop-color="#EAE9F2"/>
<stop offset="0.8339" stop-color="#D3D4E3"/>
</linearGradient>
<linearGradient id="paint2_linear_35_18" x1="280.062" y1="236.025" x2="128.185" y2="236.025" gradientUnits="userSpaceOnUse">
<stop offset="0.371" stop-color="#CACCDE"/>
<stop offset="0.9694" stop-color="#EAE9F2"/>
</linearGradient>
<linearGradient id="paint3_linear_35_18" x1="231.466" y1="227.181" x2="178.325" y2="130.061" gradientUnits="userSpaceOnUse">
<stop stop-color="#CACCDE"/>
<stop offset="0.5597" stop-color="#EAE9F2"/>
</linearGradient>
<linearGradient id="paint4_linear_35_18" x1="215.817" y1="163.254" x2="98.4004" y2="163.254" gradientUnits="userSpaceOnUse">
<stop offset="0.2355" stop-color="#A8A4B5"/>
<stop offset="1" stop-color="#DBD3E2"/>
</linearGradient>
<linearGradient id="paint5_linear_35_18" x1="275.473" y1="257.129" x2="164.486" y2="-7.60389" gradientUnits="userSpaceOnUse">
<stop offset="0.371" stop-color="#CACCDE"/>
<stop offset="0.9694" stop-color="#EAE9F2"/>
</linearGradient>
<linearGradient id="paint6_linear_35_18" x1="234.022" y1="133.774" x2="176.143" y2="27.9962" gradientUnits="userSpaceOnUse">
<stop stop-color="#CACCDE"/>
<stop offset="0.5597" stop-color="#EAE9F2"/>
</linearGradient>
<linearGradient id="paint7_linear_35_18" x1="272.469" y1="335.512" x2="300.683" y2="167.859" gradientUnits="userSpaceOnUse">
<stop stop-color="#CACCDE"/>
<stop offset="1" stop-color="#DFDEEE"/>
</linearGradient>
<linearGradient id="paint8_linear_35_18" x1="281.147" y1="323.297" x2="291.217" y2="163.279" gradientUnits="userSpaceOnUse">
<stop stop-color="#CACCDE"/>
<stop offset="1" stop-color="#DFDEEE"/>
</linearGradient>
<linearGradient id="paint9_linear_35_18" x1="245.327" y1="296.039" x2="306.154" y2="184.873" gradientUnits="userSpaceOnUse">
<stop offset="0.6799" stop-color="#D2D3E5"/>
<stop offset="0.8132" stop-color="#EAE9F2"/>
</linearGradient>
<linearGradient id="paint10_linear_35_18" x1="207.719" y1="220.928" x2="352.536" y2="220.928" gradientUnits="userSpaceOnUse">
<stop offset="0.0979" stop-color="#49CDFF"/>
<stop offset="0.1339" stop-color="#49CFFF"/>
<stop offset="0.6583" stop-color="#4DE2FF"/>
<stop offset="1" stop-color="#4FB5FF"/>
<stop offset="1" stop-color="#4FEAFF"/>
</linearGradient>
<linearGradient id="paint11_linear_35_18" x1="21.2917" y1="199.874" x2="111.655" y2="199.874" gradientUnits="userSpaceOnUse">
<stop stop-color="#42ABFF"/>
<stop offset="0.0739" stop-color="#44B7FF"/>
<stop offset="0.339" stop-color="#48E1FF"/>
<stop offset="0.5783" stop-color="#4CFEFF"/>
<stop offset="0.7811" stop-color="#4EFFEE"/>
<stop offset="0.9233" stop-color="#4FFFE7"/>
</linearGradient>
</defs>
</svg>
