<svg width="56" height="56" viewBox="0 0 56 56" fill="none" xmlns="http://www.w3.org/2000/svg">
<path d="M26.1146 36.7663C26.1146 34.713 25.5779 32.991 24.5046 31.5933C23.7439 30.632 22.7126 29.9996 21.4083 29.6986C20.1249 29.4 18.9116 29.379 17.8149 29.6333C17.4416 27.4166 18.0483 25.0693 19.5883 22.582C21.1283 20.097 23.1233 18.2256 25.5569 16.975L21.8679 11.6666C20.0013 12.5906 18.2279 13.762 16.5946 15.1783C14.9379 16.5946 13.4679 18.2233 12.1613 20.0643C10.8546 21.9053 9.87459 23.9843 9.24459 26.341C8.61459 28.6976 8.43959 31.101 8.74059 33.5743C9.13259 36.841 10.1873 39.4543 11.9046 41.391C13.6196 43.3533 15.7593 44.3333 18.3166 44.3333C20.5683 44.3333 22.4373 43.6566 23.9166 42.2846C25.3819 40.9406 26.1099 39.0996 26.1099 36.7593L26.1146 36.7663ZM47.4039 36.7663C47.4039 34.713 46.8673 32.991 45.7939 31.5933C45.0333 30.6133 43.9973 29.9786 42.6976 29.687C41.3909 29.3976 40.1939 29.3836 39.1043 29.6356C38.7309 27.4423 39.3143 25.0856 40.8589 22.589C42.3989 20.1156 44.3893 18.249 46.8229 16.989L43.1433 11.6666C41.2766 12.5906 39.5149 13.762 37.8699 15.1783C36.1982 16.6156 34.7134 18.2571 33.4506 20.0643C32.1533 21.9076 31.1873 23.9843 30.5573 26.341C29.9198 28.6962 29.7478 31.1532 30.0509 33.5743C30.4383 36.841 31.4883 39.4543 33.2009 41.391C34.9113 43.337 37.0439 44.3123 39.6013 44.3123C41.8576 44.3123 43.7266 43.6356 45.2059 42.266C46.6689 40.922 47.4039 39.081 47.4039 36.7406V36.7663Z" fill="url(#paint0_linear_34_9)"/>
<defs>
<linearGradient id="paint0_linear_34_9" x1="28.0005" y1="11.6666" x2="28.0005" y2="44.3333" gradientUnits="userSpaceOnUse">
<stop stop-color="#99F3DD"/>
<stop offset="1" stop-color="#3CD3E7"/>
</linearGradient>
</defs>
</svg>
