<svg width="96" height="19" viewBox="0 0 96 19" fill="none" xmlns="http://www.w3.org/2000/svg">
<path d="M95.4281 18.3503C94.4948 18.5253 93.5781 18.6003 92.6781 18.5753C91.7865 18.5587 90.9865 18.4045 90.2781 18.1128C89.5781 17.8128 89.0448 17.3337 88.6781 16.6753C88.3448 16.0587 88.1698 15.4337 88.1531 14.8003C88.1365 14.1587 88.1281 13.4337 88.1281 12.6253V1.10034H91.5281V12.4253C91.5281 12.9503 91.5323 13.4253 91.5406 13.8503C91.5573 14.267 91.6448 14.6003 91.8031 14.8503C92.1031 15.3253 92.5823 15.5837 93.2406 15.6253C93.899 15.667 94.6281 15.6337 95.4281 15.5253V18.3503ZM85.8281 7.47534V4.85034H95.4281V7.47534H85.8281Z" fill="white"/>
<path d="M78.7293 18.7253C77.371 18.7253 76.1793 18.4212 75.1543 17.8128C74.1293 17.2045 73.3293 16.367 72.7543 15.3003C72.1876 14.2253 71.9043 12.992 71.9043 11.6003C71.9043 10.192 72.196 8.95451 72.7793 7.88784C73.3626 6.81284 74.1668 5.97534 75.1918 5.37534C76.2168 4.77534 77.396 4.47534 78.7293 4.47534C80.0876 4.47534 81.2793 4.77951 82.3043 5.38784C83.3376 5.99617 84.1418 6.83784 84.7168 7.91284C85.2918 8.97951 85.5793 10.2087 85.5793 11.6003C85.5793 13.0003 85.2876 14.2378 84.7043 15.3128C84.1293 16.3795 83.3251 17.217 82.2918 17.8253C81.2668 18.4253 80.0793 18.7253 78.7293 18.7253ZM78.7293 15.5503C79.821 15.5503 80.6335 15.1837 81.1668 14.4503C81.7085 13.7087 81.9793 12.7587 81.9793 11.6003C81.9793 10.4003 81.7043 9.44201 81.1543 8.72534C80.6126 8.00867 79.8043 7.65034 78.7293 7.65034C77.9876 7.65034 77.3793 7.81701 76.9043 8.15034C76.4293 8.48367 76.0751 8.94618 75.8418 9.53784C75.6168 10.1295 75.5043 10.817 75.5043 11.6003C75.5043 12.8087 75.7751 13.7712 76.3168 14.4878C76.8668 15.1962 77.671 15.5503 78.7293 15.5503Z" fill="white"/>
<path d="M57.7363 18.3503V0.350342H64.9363C66.2197 0.350342 67.2572 0.608675 68.0488 1.12534C68.8405 1.63368 69.4197 2.27534 69.7863 3.05034C70.153 3.82534 70.3363 4.60868 70.3363 5.40034C70.3363 6.40868 70.1072 7.24618 69.6488 7.91284C69.1988 8.57951 68.578 9.02534 67.7863 9.25034V8.62534C68.9113 8.85868 69.753 9.37951 70.3113 10.1878C70.878 10.9962 71.1613 11.9003 71.1613 12.9003C71.1613 13.9753 70.9613 14.9212 70.5613 15.7378C70.1697 16.5545 69.5697 17.1962 68.7613 17.6628C67.953 18.1212 66.9363 18.3503 65.7113 18.3503H57.7363ZM61.1863 15.1503H65.3613C65.8197 15.1503 66.228 15.0545 66.5863 14.8628C66.9447 14.6628 67.2238 14.3878 67.4238 14.0378C67.6322 13.6795 67.7363 13.2587 67.7363 12.7753C67.7363 12.3503 67.6488 11.9712 67.4738 11.6378C67.2988 11.3045 67.0322 11.042 66.6738 10.8503C66.3238 10.6503 65.8863 10.5503 65.3613 10.5503H61.1863V15.1503ZM61.1863 7.37534H64.8863C65.2697 7.37534 65.6113 7.30868 65.9113 7.17534C66.2113 7.04201 66.4488 6.83784 66.6238 6.56284C66.7988 6.27951 66.8863 5.91701 66.8863 5.47534C66.8863 4.92534 66.7155 4.46284 66.3738 4.08784C66.0322 3.71284 65.5363 3.52534 64.8863 3.52534H61.1863V7.37534Z" fill="white"/>
<path d="M44.9175 18.3503L44.9425 0.350342H48.3925V11.3503L52.9675 4.85034H57.1675L52.2925 11.6003L57.4925 18.3503H53.0675L48.3925 11.8503V18.3503H44.9175Z" fill="white"/>
<path d="M37.0074 18.7253C35.6241 18.7253 34.4033 18.4295 33.3449 17.8378C32.2949 17.2378 31.4699 16.417 30.8699 15.3753C30.2783 14.3253 29.9824 13.1253 29.9824 11.7753C29.9824 10.3003 30.2741 9.01701 30.8574 7.92534C31.4408 6.83367 32.2449 5.98784 33.2699 5.38784C34.2949 4.77951 35.4741 4.47534 36.8074 4.47534C38.2241 4.47534 39.4283 4.80867 40.4199 5.47534C41.4116 6.14201 42.1449 7.07951 42.6199 8.28784C43.0949 9.49618 43.2616 10.917 43.1199 12.5503H39.7574V11.3003C39.7574 9.92534 39.5366 8.93784 39.0949 8.33784C38.6616 7.72951 37.9491 7.42534 36.9574 7.42534C35.7991 7.42534 34.9449 7.77951 34.3949 8.48784C33.8533 9.18784 33.5824 10.2253 33.5824 11.6003C33.5824 12.8587 33.8533 13.8337 34.3949 14.5253C34.9449 15.2087 35.7491 15.5503 36.8074 15.5503C37.4741 15.5503 38.0449 15.4045 38.5199 15.1128C38.9949 14.8212 39.3574 14.4003 39.6074 13.8503L43.0074 14.8253C42.4991 16.0587 41.6949 17.017 40.5949 17.7003C39.5033 18.3837 38.3074 18.7253 37.0074 18.7253ZM32.5324 12.5503V10.0253H41.4824V12.5503H32.5324Z" fill="white"/>
<path d="M22.7975 18.7253C21.4141 18.7253 20.1933 18.4295 19.135 17.8378C18.085 17.2378 17.26 16.417 16.66 15.3753C16.0683 14.3253 15.7725 13.1253 15.7725 11.7753C15.7725 10.3003 16.0641 9.01701 16.6475 7.92534C17.2308 6.83367 18.035 5.98784 19.06 5.38784C20.085 4.77951 21.2641 4.47534 22.5975 4.47534C24.0141 4.47534 25.2183 4.80867 26.21 5.47534C27.2016 6.14201 27.935 7.07951 28.41 8.28784C28.885 9.49618 29.0516 10.917 28.91 12.5503H25.5475V11.3003C25.5475 9.92534 25.3266 8.93784 24.885 8.33784C24.4516 7.72951 23.7391 7.42534 22.7475 7.42534C21.5891 7.42534 20.735 7.77951 20.185 8.48784C19.6433 9.18784 19.3725 10.2253 19.3725 11.6003C19.3725 12.8587 19.6433 13.8337 20.185 14.5253C20.735 15.2087 21.5391 15.5503 22.5975 15.5503C23.2641 15.5503 23.835 15.4045 24.31 15.1128C24.785 14.8212 25.1475 14.4003 25.3975 13.8503L28.7975 14.8253C28.2891 16.0587 27.485 17.017 26.385 17.7003C25.2933 18.3837 24.0975 18.7253 22.7975 18.7253ZM18.3225 12.5503V10.0253H27.2725V12.5503H18.3225Z" fill="white"/>
<path d="M7.55 18.7253C6.21667 18.7253 5.0125 18.4919 3.9375 18.0253C2.87083 17.5503 1.99167 16.8753 1.3 16.0003C0.616667 15.1169 0.183333 14.0669 0 12.8503L3.55 12.3253C3.8 13.3586 4.31667 14.1544 5.1 14.7128C5.88333 15.2711 6.775 15.5503 7.775 15.5503C8.33333 15.5503 8.875 15.4628 9.4 15.2878C9.925 15.1128 10.3542 14.8544 10.6875 14.5128C11.0292 14.1711 11.2 13.7503 11.2 13.2503C11.2 13.0669 11.1708 12.8919 11.1125 12.7253C11.0625 12.5503 10.975 12.3878 10.85 12.2378C10.725 12.0878 10.5458 11.9461 10.3125 11.8128C10.0875 11.6794 9.8 11.5586 9.45 11.4503L4.775 10.0753C4.425 9.97526 4.01667 9.83359 3.55 9.65026C3.09167 9.46693 2.64583 9.20443 2.2125 8.86276C1.77917 8.52109 1.41667 8.07109 1.125 7.51276C0.841667 6.94609 0.7 6.23359 0.7 5.37526C0.7 4.16693 1.00417 3.16276 1.6125 2.36276C2.22083 1.56276 3.03333 0.966926 4.05 0.57526C5.06667 0.183593 6.19167 -0.00807328 7.425 0.000260441C8.66667 0.0169269 9.775 0.229427 10.75 0.63776C11.725 1.04609 12.5417 1.64193 13.2 2.42526C13.8583 3.20026 14.3333 4.15026 14.625 5.27526L10.95 5.90026C10.8167 5.31693 10.5708 4.82526 10.2125 4.42526C9.85417 4.02526 9.425 3.72109 8.925 3.51276C8.43333 3.30443 7.91667 3.19193 7.375 3.17526C6.84167 3.15859 6.3375 3.23359 5.8625 3.40026C5.39583 3.55859 5.0125 3.79193 4.7125 4.10026C4.42083 4.40859 4.275 4.77526 4.275 5.20026C4.275 5.59193 4.39583 5.91276 4.6375 6.16276C4.87917 6.40443 5.18333 6.60026 5.55 6.75026C5.91667 6.90026 6.29167 7.02526 6.675 7.12526L9.8 7.97526C10.2667 8.10026 10.7833 8.26693 11.35 8.47526C11.9167 8.67526 12.4583 8.95859 12.975 9.32526C13.5 9.68359 13.9292 10.1586 14.2625 10.7503C14.6042 11.3419 14.775 12.0919 14.775 13.0003C14.775 13.9669 14.5708 14.8128 14.1625 15.5378C13.7625 16.2544 13.2208 16.8503 12.5375 17.3253C11.8542 17.7919 11.0792 18.1419 10.2125 18.3753C9.35417 18.6086 8.46667 18.7253 7.55 18.7253Z" fill="white"/>
</svg>
